<mxfile host="app.diagrams.net" modified="2023-11-08T11:34:33.917Z" agent="Mozilla/5.0 (Windows NT 10.0; Win64; x64) AppleWebKit/537.36 (KHTML, like Gecko) Chrome/119.0.0.0 Safari/537.36" etag="i5nze8hTo3Dqw5mzAsTL" version="22.0.8" type="github">
  <diagram id="C5RBs43oDa-KdzZeNtuy" name="Page-1">
    <mxGraphModel dx="2074" dy="1110" grid="1" gridSize="10" guides="1" tooltips="1" connect="1" arrows="1" fold="1" page="1" pageScale="1" pageWidth="1169" pageHeight="827" math="0" shadow="0">
      <root>
        <mxCell id="WIyWlLk6GJQsqaUBKTNV-0" />
        <mxCell id="WIyWlLk6GJQsqaUBKTNV-1" parent="WIyWlLk6GJQsqaUBKTNV-0" />
        <mxCell id="aBDvLTNAFJ3Gb6Voetzl-55" style="edgeStyle=orthogonalEdgeStyle;rounded=0;orthogonalLoop=1;jettySize=auto;html=1;endArrow=open;endFill=0;snapToPoint=1;" edge="1" parent="WIyWlLk6GJQsqaUBKTNV-1" source="aBDvLTNAFJ3Gb6Voetzl-57" target="aBDvLTNAFJ3Gb6Voetzl-101">
          <mxGeometry relative="1" as="geometry" />
        </mxCell>
        <mxCell id="aBDvLTNAFJ3Gb6Voetzl-56" value="&lt;font style=&quot;font-size: 12px;&quot;&gt;&lt;b&gt;*&lt;/b&gt;&lt;/font&gt;" style="edgeLabel;html=1;align=center;verticalAlign=middle;resizable=0;points=[];labelBackgroundColor=none;" connectable="0" vertex="1" parent="aBDvLTNAFJ3Gb6Voetzl-55">
          <mxGeometry x="-0.8146" y="1" relative="1" as="geometry">
            <mxPoint x="-9" y="12" as="offset" />
          </mxGeometry>
        </mxCell>
        <mxCell id="aBDvLTNAFJ3Gb6Voetzl-57" value="Single Pizza" style="swimlane;fontStyle=0;childLayout=stackLayout;horizontal=1;startSize=26;fillColor=none;horizontalStack=0;resizeParent=1;resizeParentMax=0;resizeLast=0;collapsible=1;marginBottom=0;whiteSpace=wrap;html=1;fontSize=12;spacing=2;" vertex="1" parent="WIyWlLk6GJQsqaUBKTNV-1">
          <mxGeometry x="920" y="668" width="120" height="104" as="geometry" />
        </mxCell>
        <mxCell id="aBDvLTNAFJ3Gb6Voetzl-58" value="pizzaNumber" style="text;strokeColor=none;fillColor=none;align=left;verticalAlign=top;spacingLeft=4;spacingRight=4;overflow=hidden;rotatable=0;points=[[0,0.5],[1,0.5]];portConstraint=eastwest;whiteSpace=wrap;html=1;fontSize=12;spacing=2;" vertex="1" parent="aBDvLTNAFJ3Gb6Voetzl-57">
          <mxGeometry y="26" width="120" height="26" as="geometry" />
        </mxCell>
        <mxCell id="aBDvLTNAFJ3Gb6Voetzl-59" value="extraTopping" style="text;strokeColor=none;fillColor=none;align=left;verticalAlign=top;spacingLeft=4;spacingRight=4;overflow=hidden;rotatable=0;points=[[0,0.5],[1,0.5]];portConstraint=eastwest;whiteSpace=wrap;html=1;fontSize=12;spacing=2;" vertex="1" parent="aBDvLTNAFJ3Gb6Voetzl-57">
          <mxGeometry y="52" width="120" height="26" as="geometry" />
        </mxCell>
        <mxCell id="aBDvLTNAFJ3Gb6Voetzl-60" value="pizzaPriceCalculator" style="text;strokeColor=none;fillColor=none;align=left;verticalAlign=top;spacingLeft=4;spacingRight=4;overflow=hidden;rotatable=0;points=[[0,0.5],[1,0.5]];portConstraint=eastwest;whiteSpace=wrap;html=1;fontSize=12;spacing=2;" vertex="1" parent="aBDvLTNAFJ3Gb6Voetzl-57">
          <mxGeometry y="78" width="120" height="26" as="geometry" />
        </mxCell>
        <mxCell id="aBDvLTNAFJ3Gb6Voetzl-61" value="" style="edgeStyle=orthogonalEdgeStyle;rounded=0;orthogonalLoop=1;jettySize=auto;html=1;endArrow=block;endFill=1;exitX=0;exitY=0.5;exitDx=0;exitDy=0;" edge="1" parent="WIyWlLk6GJQsqaUBKTNV-1" source="aBDvLTNAFJ3Gb6Voetzl-64" target="aBDvLTNAFJ3Gb6Voetzl-66">
          <mxGeometry relative="1" as="geometry">
            <mxPoint x="170" y="576" as="targetPoint" />
          </mxGeometry>
        </mxCell>
        <mxCell id="aBDvLTNAFJ3Gb6Voetzl-62" style="edgeStyle=orthogonalEdgeStyle;rounded=0;orthogonalLoop=1;jettySize=auto;html=1;endArrow=open;endFill=0;entryX=-0.012;entryY=1.115;entryDx=0;entryDy=0;entryPerimeter=0;metaEdit=0;" edge="1" parent="WIyWlLk6GJQsqaUBKTNV-1" source="aBDvLTNAFJ3Gb6Voetzl-64" target="aBDvLTNAFJ3Gb6Voetzl-59">
          <mxGeometry relative="1" as="geometry" />
        </mxCell>
        <mxCell id="aBDvLTNAFJ3Gb6Voetzl-63" value="&lt;font style=&quot;font-size: 12px;&quot;&gt;&lt;b&gt;*&lt;/b&gt;&lt;/font&gt;" style="edgeLabel;html=1;align=center;verticalAlign=middle;resizable=0;points=[];labelBackgroundColor=none;" connectable="0" vertex="1" parent="aBDvLTNAFJ3Gb6Voetzl-62">
          <mxGeometry x="0.9492" y="-1" relative="1" as="geometry">
            <mxPoint x="3" y="-7" as="offset" />
          </mxGeometry>
        </mxCell>
        <mxCell id="aBDvLTNAFJ3Gb6Voetzl-64" value="Customer" style="swimlane;fontStyle=0;childLayout=stackLayout;horizontal=1;startSize=26;fillColor=none;horizontalStack=0;resizeParent=1;resizeParentMax=0;resizeLast=0;collapsible=1;marginBottom=0;whiteSpace=wrap;html=1;fontSize=12;spacing=2;" vertex="1" parent="WIyWlLk6GJQsqaUBKTNV-1">
          <mxGeometry x="490" y="616" width="120" height="52" as="geometry" />
        </mxCell>
        <mxCell id="aBDvLTNAFJ3Gb6Voetzl-65" value="customerInfo" style="text;strokeColor=none;fillColor=none;align=left;verticalAlign=top;spacingLeft=4;spacingRight=4;overflow=hidden;rotatable=0;points=[[0,0.5],[1,0.5]];portConstraint=eastwest;whiteSpace=wrap;html=1;fontSize=12;spacing=2;" vertex="1" parent="aBDvLTNAFJ3Gb6Voetzl-64">
          <mxGeometry y="26" width="120" height="26" as="geometry" />
        </mxCell>
        <mxCell id="aBDvLTNAFJ3Gb6Voetzl-66" value="User" style="swimlane;fontStyle=0;childLayout=stackLayout;horizontal=1;startSize=26;fillColor=none;horizontalStack=0;resizeParent=1;resizeParentMax=0;resizeLast=0;collapsible=1;marginBottom=0;whiteSpace=wrap;html=1;fontSize=12;spacing=2;" vertex="1" parent="WIyWlLk6GJQsqaUBKTNV-1">
          <mxGeometry x="129" y="626" width="120" height="156" as="geometry" />
        </mxCell>
        <mxCell id="aBDvLTNAFJ3Gb6Voetzl-67" value="userID" style="text;strokeColor=none;fillColor=none;align=left;verticalAlign=top;spacingLeft=4;spacingRight=4;overflow=hidden;rotatable=0;points=[[0,0.5],[1,0.5]];portConstraint=eastwest;whiteSpace=wrap;html=1;fontSize=12;spacing=2;" vertex="1" parent="aBDvLTNAFJ3Gb6Voetzl-66">
          <mxGeometry y="26" width="120" height="26" as="geometry" />
        </mxCell>
        <mxCell id="aBDvLTNAFJ3Gb6Voetzl-68" value="viewOrderStatus" style="text;strokeColor=none;fillColor=none;align=left;verticalAlign=top;spacingLeft=4;spacingRight=4;overflow=hidden;rotatable=0;points=[[0,0.5],[1,0.5]];portConstraint=eastwest;whiteSpace=wrap;html=1;fontSize=12;spacing=2;" vertex="1" parent="aBDvLTNAFJ3Gb6Voetzl-66">
          <mxGeometry y="52" width="120" height="26" as="geometry" />
        </mxCell>
        <mxCell id="aBDvLTNAFJ3Gb6Voetzl-69" value="createOrder" style="text;strokeColor=none;fillColor=none;align=left;verticalAlign=top;spacingLeft=4;spacingRight=4;overflow=hidden;rotatable=0;points=[[0,0.5],[1,0.5]];portConstraint=eastwest;whiteSpace=wrap;html=1;fontSize=12;spacing=2;" vertex="1" parent="aBDvLTNAFJ3Gb6Voetzl-66">
          <mxGeometry y="78" width="120" height="26" as="geometry" />
        </mxCell>
        <mxCell id="aBDvLTNAFJ3Gb6Voetzl-70" value="deleteOrderItem" style="text;strokeColor=none;fillColor=none;align=left;verticalAlign=top;spacingLeft=4;spacingRight=4;overflow=hidden;rotatable=0;points=[[0,0.5],[1,0.5]];portConstraint=eastwest;whiteSpace=wrap;html=1;fontSize=12;spacing=2;" vertex="1" parent="aBDvLTNAFJ3Gb6Voetzl-66">
          <mxGeometry y="104" width="120" height="26" as="geometry" />
        </mxCell>
        <mxCell id="aBDvLTNAFJ3Gb6Voetzl-71" value="viewPrice" style="text;strokeColor=none;fillColor=none;align=left;verticalAlign=top;spacingLeft=4;spacingRight=4;overflow=hidden;rotatable=0;points=[[0,0.5],[1,0.5]];portConstraint=eastwest;whiteSpace=wrap;html=1;fontSize=12;spacing=2;" vertex="1" parent="aBDvLTNAFJ3Gb6Voetzl-66">
          <mxGeometry y="130" width="120" height="26" as="geometry" />
        </mxCell>
        <mxCell id="aBDvLTNAFJ3Gb6Voetzl-72" value="Accounting" style="swimlane;fontStyle=0;childLayout=stackLayout;horizontal=1;startSize=26;fillColor=none;horizontalStack=0;resizeParent=1;resizeParentMax=0;resizeLast=0;collapsible=1;marginBottom=0;whiteSpace=wrap;html=1;fontSize=12;spacing=2;" vertex="1" parent="WIyWlLk6GJQsqaUBKTNV-1">
          <mxGeometry x="485" y="56" width="120" height="208" as="geometry" />
        </mxCell>
        <mxCell id="aBDvLTNAFJ3Gb6Voetzl-73" value="viewPrice" style="text;strokeColor=none;fillColor=none;align=left;verticalAlign=top;spacingLeft=4;spacingRight=4;overflow=hidden;rotatable=0;points=[[0,0.5],[1,0.5]];portConstraint=eastwest;whiteSpace=wrap;html=1;fontSize=12;spacing=2;" vertex="1" parent="aBDvLTNAFJ3Gb6Voetzl-72">
          <mxGeometry y="26" width="120" height="26" as="geometry" />
        </mxCell>
        <mxCell id="aBDvLTNAFJ3Gb6Voetzl-74" value="calculateRevenue" style="text;strokeColor=none;fillColor=none;align=left;verticalAlign=top;spacingLeft=4;spacingRight=4;overflow=hidden;rotatable=0;points=[[0,0.5],[1,0.5]];portConstraint=eastwest;whiteSpace=wrap;html=1;fontSize=12;spacing=2;" vertex="1" parent="aBDvLTNAFJ3Gb6Voetzl-72">
          <mxGeometry y="52" width="120" height="26" as="geometry" />
        </mxCell>
        <mxCell id="aBDvLTNAFJ3Gb6Voetzl-75" value="calculateProfit" style="text;strokeColor=none;fillColor=none;align=left;verticalAlign=top;spacingLeft=4;spacingRight=4;overflow=hidden;rotatable=0;points=[[0,0.5],[1,0.5]];portConstraint=eastwest;whiteSpace=wrap;html=1;fontSize=12;spacing=2;" vertex="1" parent="aBDvLTNAFJ3Gb6Voetzl-72">
          <mxGeometry y="78" width="120" height="26" as="geometry" />
        </mxCell>
        <mxCell id="aBDvLTNAFJ3Gb6Voetzl-76" value="todaysStatistics" style="text;strokeColor=none;fillColor=none;align=left;verticalAlign=top;spacingLeft=4;spacingRight=4;overflow=hidden;rotatable=0;points=[[0,0.5],[1,0.5]];portConstraint=eastwest;whiteSpace=wrap;html=1;fontSize=12;spacing=2;" vertex="1" parent="aBDvLTNAFJ3Gb6Voetzl-72">
          <mxGeometry y="104" width="120" height="26" as="geometry" />
        </mxCell>
        <mxCell id="aBDvLTNAFJ3Gb6Voetzl-77" value="todaysStatistics" style="text;strokeColor=none;fillColor=none;align=left;verticalAlign=top;spacingLeft=4;spacingRight=4;overflow=hidden;rotatable=0;points=[[0,0.5],[1,0.5]];portConstraint=eastwest;whiteSpace=wrap;html=1;fontSize=12;spacing=2;" vertex="1" parent="aBDvLTNAFJ3Gb6Voetzl-72">
          <mxGeometry y="130" width="120" height="26" as="geometry" />
        </mxCell>
        <mxCell id="aBDvLTNAFJ3Gb6Voetzl-78" value="todaysRevenue" style="text;strokeColor=none;fillColor=none;align=left;verticalAlign=top;spacingLeft=4;spacingRight=4;overflow=hidden;rotatable=0;points=[[0,0.5],[1,0.5]];portConstraint=eastwest;whiteSpace=wrap;html=1;fontSize=12;spacing=2;" vertex="1" parent="aBDvLTNAFJ3Gb6Voetzl-72">
          <mxGeometry y="156" width="120" height="26" as="geometry" />
        </mxCell>
        <mxCell id="aBDvLTNAFJ3Gb6Voetzl-79" value="todaysProfit" style="text;strokeColor=none;fillColor=none;align=left;verticalAlign=top;spacingLeft=4;spacingRight=4;overflow=hidden;rotatable=0;points=[[0,0.5],[1,0.5]];portConstraint=eastwest;whiteSpace=wrap;html=1;fontSize=12;spacing=2;" vertex="1" parent="aBDvLTNAFJ3Gb6Voetzl-72">
          <mxGeometry y="182" width="120" height="26" as="geometry" />
        </mxCell>
        <mxCell id="aBDvLTNAFJ3Gb6Voetzl-80" style="edgeStyle=orthogonalEdgeStyle;rounded=0;orthogonalLoop=1;jettySize=auto;html=1;entryX=0.5;entryY=0;entryDx=0;entryDy=0;endArrow=open;endFill=0;" edge="1" parent="WIyWlLk6GJQsqaUBKTNV-1" source="aBDvLTNAFJ3Gb6Voetzl-81" target="aBDvLTNAFJ3Gb6Voetzl-117">
          <mxGeometry relative="1" as="geometry" />
        </mxCell>
        <mxCell id="aBDvLTNAFJ3Gb6Voetzl-81" value="Accouting log" style="swimlane;fontStyle=0;childLayout=stackLayout;horizontal=1;startSize=26;fillColor=none;horizontalStack=0;resizeParent=1;resizeParentMax=0;resizeLast=0;collapsible=1;marginBottom=0;whiteSpace=wrap;html=1;fontSize=12;spacing=2;" vertex="1" parent="WIyWlLk6GJQsqaUBKTNV-1">
          <mxGeometry x="129" y="46" width="120" height="104" as="geometry" />
        </mxCell>
        <mxCell id="aBDvLTNAFJ3Gb6Voetzl-82" value="totalRevenue" style="text;strokeColor=none;fillColor=none;align=left;verticalAlign=top;spacingLeft=4;spacingRight=4;overflow=hidden;rotatable=0;points=[[0,0.5],[1,0.5]];portConstraint=eastwest;whiteSpace=wrap;html=1;fontSize=12;spacing=2;" vertex="1" parent="aBDvLTNAFJ3Gb6Voetzl-81">
          <mxGeometry y="26" width="120" height="26" as="geometry" />
        </mxCell>
        <mxCell id="aBDvLTNAFJ3Gb6Voetzl-83" value="totalProfit" style="text;strokeColor=none;fillColor=none;align=left;verticalAlign=top;spacingLeft=4;spacingRight=4;overflow=hidden;rotatable=0;points=[[0,0.5],[1,0.5]];portConstraint=eastwest;whiteSpace=wrap;html=1;fontSize=12;spacing=2;" vertex="1" parent="aBDvLTNAFJ3Gb6Voetzl-81">
          <mxGeometry y="52" width="120" height="26" as="geometry" />
        </mxCell>
        <mxCell id="aBDvLTNAFJ3Gb6Voetzl-84" value="statistics" style="text;strokeColor=none;fillColor=none;align=left;verticalAlign=top;spacingLeft=4;spacingRight=4;overflow=hidden;rotatable=0;points=[[0,0.5],[1,0.5]];portConstraint=eastwest;whiteSpace=wrap;html=1;fontSize=12;spacing=2;" vertex="1" parent="aBDvLTNAFJ3Gb6Voetzl-81">
          <mxGeometry y="78" width="120" height="26" as="geometry" />
        </mxCell>
        <mxCell id="aBDvLTNAFJ3Gb6Voetzl-85" style="edgeStyle=orthogonalEdgeStyle;rounded=0;orthogonalLoop=1;jettySize=auto;html=1;endArrow=open;endFill=0;startArrow=none;startFill=0;snapToPoint=1;dashed=1;dashPattern=12 12;" edge="1" parent="WIyWlLk6GJQsqaUBKTNV-1" source="aBDvLTNAFJ3Gb6Voetzl-90" target="aBDvLTNAFJ3Gb6Voetzl-104">
          <mxGeometry relative="1" as="geometry">
            <mxPoint x="600" y="410" as="sourcePoint" />
            <mxPoint x="820" y="410" as="targetPoint" />
          </mxGeometry>
        </mxCell>
        <mxCell id="aBDvLTNAFJ3Gb6Voetzl-86" value="1" style="edgeLabel;html=1;align=center;verticalAlign=middle;resizable=0;points=[];fontStyle=1" connectable="0" vertex="1" parent="aBDvLTNAFJ3Gb6Voetzl-85">
          <mxGeometry x="-0.9152" y="1" relative="1" as="geometry">
            <mxPoint x="-3" y="-12" as="offset" />
          </mxGeometry>
        </mxCell>
        <mxCell id="aBDvLTNAFJ3Gb6Voetzl-87" value="Order orgranizer" style="swimlane;fontStyle=0;childLayout=stackLayout;horizontal=1;startSize=26;fillColor=none;horizontalStack=0;resizeParent=1;resizeParentMax=0;resizeLast=0;collapsible=1;marginBottom=0;whiteSpace=wrap;html=1;fontSize=12;spacing=2;" vertex="1" parent="WIyWlLk6GJQsqaUBKTNV-1">
          <mxGeometry x="485" y="319" width="120" height="208" as="geometry" />
        </mxCell>
        <mxCell id="aBDvLTNAFJ3Gb6Voetzl-88" value="uniqueID generator" style="text;strokeColor=none;fillColor=none;align=left;verticalAlign=top;spacingLeft=4;spacingRight=4;overflow=hidden;rotatable=0;points=[[0,0.5],[1,0.5]];portConstraint=eastwest;whiteSpace=wrap;html=1;fontSize=12;spacing=2;" vertex="1" parent="aBDvLTNAFJ3Gb6Voetzl-87">
          <mxGeometry y="26" width="120" height="26" as="geometry" />
        </mxCell>
        <mxCell id="aBDvLTNAFJ3Gb6Voetzl-89" value="queueingOrders" style="text;strokeColor=none;fillColor=none;align=left;verticalAlign=top;spacingLeft=4;spacingRight=4;overflow=hidden;rotatable=0;points=[[0,0.5],[1,0.5]];portConstraint=eastwest;whiteSpace=wrap;html=1;fontSize=12;spacing=2;" vertex="1" parent="aBDvLTNAFJ3Gb6Voetzl-87">
          <mxGeometry y="52" width="120" height="26" as="geometry" />
        </mxCell>
        <mxCell id="aBDvLTNAFJ3Gb6Voetzl-90" value="viewPrice" style="text;strokeColor=none;fillColor=none;align=left;verticalAlign=top;spacingLeft=4;spacingRight=4;overflow=hidden;rotatable=0;points=[[0,0.5],[1,0.5]];portConstraint=eastwest;whiteSpace=wrap;html=1;fontSize=12;spacing=2;" vertex="1" parent="aBDvLTNAFJ3Gb6Voetzl-87">
          <mxGeometry y="78" width="120" height="26" as="geometry" />
        </mxCell>
        <mxCell id="aBDvLTNAFJ3Gb6Voetzl-91" value="dataStatistics" style="text;strokeColor=none;fillColor=none;align=left;verticalAlign=top;spacingLeft=4;spacingRight=4;overflow=hidden;rotatable=0;points=[[0,0.5],[1,0.5]];portConstraint=eastwest;whiteSpace=wrap;html=1;fontSize=12;spacing=2;" vertex="1" parent="aBDvLTNAFJ3Gb6Voetzl-87">
          <mxGeometry y="104" width="120" height="26" as="geometry" />
        </mxCell>
        <mxCell id="aBDvLTNAFJ3Gb6Voetzl-92" value="paidPrompt" style="text;strokeColor=none;fillColor=none;align=left;verticalAlign=top;spacingLeft=4;spacingRight=4;overflow=hidden;rotatable=0;points=[[0,0.5],[1,0.5]];portConstraint=eastwest;whiteSpace=wrap;html=1;fontSize=12;spacing=2;" vertex="1" parent="aBDvLTNAFJ3Gb6Voetzl-87">
          <mxGeometry y="130" width="120" height="26" as="geometry" />
        </mxCell>
        <mxCell id="aBDvLTNAFJ3Gb6Voetzl-93" value="readyPrompt" style="text;strokeColor=none;fillColor=none;align=left;verticalAlign=top;spacingLeft=4;spacingRight=4;overflow=hidden;rotatable=0;points=[[0,0.5],[1,0.5]];portConstraint=eastwest;whiteSpace=wrap;html=1;fontSize=12;spacing=2;" vertex="1" parent="aBDvLTNAFJ3Gb6Voetzl-87">
          <mxGeometry y="156" width="120" height="26" as="geometry" />
        </mxCell>
        <mxCell id="aBDvLTNAFJ3Gb6Voetzl-94" value="orderStatus" style="text;strokeColor=none;fillColor=none;align=left;verticalAlign=top;spacingLeft=4;spacingRight=4;overflow=hidden;rotatable=0;points=[[0,0.5],[1,0.5]];portConstraint=eastwest;whiteSpace=wrap;html=1;fontSize=12;spacing=2;" vertex="1" parent="aBDvLTNAFJ3Gb6Voetzl-87">
          <mxGeometry y="182" width="120" height="26" as="geometry" />
        </mxCell>
        <mxCell id="aBDvLTNAFJ3Gb6Voetzl-95" style="edgeStyle=orthogonalEdgeStyle;rounded=0;orthogonalLoop=1;jettySize=auto;html=1;endArrow=open;endFill=0;" edge="1" parent="WIyWlLk6GJQsqaUBKTNV-1" source="aBDvLTNAFJ3Gb6Voetzl-101" target="aBDvLTNAFJ3Gb6Voetzl-126">
          <mxGeometry relative="1" as="geometry" />
        </mxCell>
        <mxCell id="aBDvLTNAFJ3Gb6Voetzl-96" value="1" style="edgeLabel;html=1;align=center;verticalAlign=middle;resizable=0;points=[];" connectable="0" vertex="1" parent="aBDvLTNAFJ3Gb6Voetzl-95">
          <mxGeometry x="0.7436" y="-1" relative="1" as="geometry">
            <mxPoint x="-11" as="offset" />
          </mxGeometry>
        </mxCell>
        <mxCell id="aBDvLTNAFJ3Gb6Voetzl-97" value="&lt;font style=&quot;font-size: 12px;&quot;&gt;&lt;b&gt;*&lt;/b&gt;&lt;/font&gt;" style="edgeLabel;html=1;align=center;verticalAlign=middle;resizable=0;points=[];labelBackgroundColor=none;" connectable="0" vertex="1" parent="aBDvLTNAFJ3Gb6Voetzl-95">
          <mxGeometry x="-0.5385" y="3" relative="1" as="geometry">
            <mxPoint x="-7" y="13" as="offset" />
          </mxGeometry>
        </mxCell>
        <mxCell id="aBDvLTNAFJ3Gb6Voetzl-98" style="edgeStyle=orthogonalEdgeStyle;rounded=0;orthogonalLoop=1;jettySize=auto;html=1;entryX=1;entryY=0.5;entryDx=0;entryDy=0;endArrow=open;endFill=0;" edge="1" parent="WIyWlLk6GJQsqaUBKTNV-1" source="aBDvLTNAFJ3Gb6Voetzl-106" target="aBDvLTNAFJ3Gb6Voetzl-64">
          <mxGeometry relative="1" as="geometry">
            <Array as="points">
              <mxPoint x="820" y="462" />
              <mxPoint x="820" y="642" />
            </Array>
          </mxGeometry>
        </mxCell>
        <mxCell id="aBDvLTNAFJ3Gb6Voetzl-99" value="1" style="edgeLabel;html=1;align=center;verticalAlign=middle;resizable=0;points=[];" connectable="0" vertex="1" parent="aBDvLTNAFJ3Gb6Voetzl-98">
          <mxGeometry x="0.9394" relative="1" as="geometry">
            <mxPoint y="-16" as="offset" />
          </mxGeometry>
        </mxCell>
        <mxCell id="aBDvLTNAFJ3Gb6Voetzl-100" value="*" style="edgeLabel;html=1;align=center;verticalAlign=middle;resizable=0;points=[];fontSize=12;fontStyle=1;labelBackgroundColor=none;" connectable="0" vertex="1" parent="aBDvLTNAFJ3Gb6Voetzl-98">
          <mxGeometry x="-0.9329" relative="1" as="geometry">
            <mxPoint x="6" y="-6" as="offset" />
          </mxGeometry>
        </mxCell>
        <mxCell id="aBDvLTNAFJ3Gb6Voetzl-101" value="Pizza order" style="swimlane;fontStyle=0;childLayout=stackLayout;horizontal=1;startSize=26;fillColor=none;horizontalStack=0;resizeParent=1;resizeParentMax=0;resizeLast=0;collapsible=1;marginBottom=0;whiteSpace=wrap;html=1;fontSize=12;spacing=2;" vertex="1" parent="WIyWlLk6GJQsqaUBKTNV-1">
          <mxGeometry x="920" y="319" width="120" height="182" as="geometry" />
        </mxCell>
        <mxCell id="aBDvLTNAFJ3Gb6Voetzl-102" value="uniqueID" style="text;strokeColor=none;fillColor=none;align=left;verticalAlign=top;spacingLeft=4;spacingRight=4;overflow=hidden;rotatable=0;points=[[0,0.5],[1,0.5]];portConstraint=eastwest;whiteSpace=wrap;html=1;fontSize=12;spacing=2;" vertex="1" parent="aBDvLTNAFJ3Gb6Voetzl-101">
          <mxGeometry y="26" width="120" height="26" as="geometry" />
        </mxCell>
        <mxCell id="aBDvLTNAFJ3Gb6Voetzl-103" value="customerInfo" style="text;strokeColor=none;fillColor=none;align=left;verticalAlign=top;spacingLeft=4;spacingRight=4;overflow=hidden;rotatable=0;points=[[0,0.5],[1,0.5]];portConstraint=eastwest;whiteSpace=wrap;html=1;fontSize=12;spacing=2;" vertex="1" parent="aBDvLTNAFJ3Gb6Voetzl-101">
          <mxGeometry y="52" width="120" height="26" as="geometry" />
        </mxCell>
        <mxCell id="aBDvLTNAFJ3Gb6Voetzl-104" value="orderInfo" style="text;strokeColor=none;fillColor=none;align=left;verticalAlign=top;spacingLeft=4;spacingRight=4;overflow=hidden;rotatable=0;points=[[0,0.5],[1,0.5]];portConstraint=eastwest;whiteSpace=wrap;html=1;fontSize=12;spacing=2;" vertex="1" parent="aBDvLTNAFJ3Gb6Voetzl-101">
          <mxGeometry y="78" width="120" height="26" as="geometry" />
        </mxCell>
        <mxCell id="aBDvLTNAFJ3Gb6Voetzl-105" value="orderDelivery" style="text;strokeColor=none;fillColor=none;align=left;verticalAlign=top;spacingLeft=4;spacingRight=4;overflow=hidden;rotatable=0;points=[[0,0.5],[1,0.5]];portConstraint=eastwest;whiteSpace=wrap;html=1;fontSize=12;spacing=2;" vertex="1" parent="aBDvLTNAFJ3Gb6Voetzl-101">
          <mxGeometry y="104" width="120" height="26" as="geometry" />
        </mxCell>
        <mxCell id="aBDvLTNAFJ3Gb6Voetzl-106" value="totalPrice" style="text;strokeColor=none;fillColor=none;align=left;verticalAlign=top;spacingLeft=4;spacingRight=4;overflow=hidden;rotatable=0;points=[[0,0.5],[1,0.5]];portConstraint=eastwest;whiteSpace=wrap;html=1;fontSize=12;spacing=2;" vertex="1" parent="aBDvLTNAFJ3Gb6Voetzl-101">
          <mxGeometry y="130" width="120" height="26" as="geometry" />
        </mxCell>
        <mxCell id="aBDvLTNAFJ3Gb6Voetzl-107" value="orderStatus" style="text;strokeColor=none;fillColor=none;align=left;verticalAlign=top;spacingLeft=4;spacingRight=4;overflow=hidden;rotatable=0;points=[[0,0.5],[1,0.5]];portConstraint=eastwest;whiteSpace=wrap;html=1;fontSize=12;spacing=2;" vertex="1" parent="aBDvLTNAFJ3Gb6Voetzl-101">
          <mxGeometry y="156" width="120" height="26" as="geometry" />
        </mxCell>
        <mxCell id="aBDvLTNAFJ3Gb6Voetzl-108" value="" style="edgeStyle=orthogonalEdgeStyle;rounded=0;orthogonalLoop=1;jettySize=auto;html=1;endArrow=blockThin;endFill=1;" edge="1" parent="WIyWlLk6GJQsqaUBKTNV-1" source="aBDvLTNAFJ3Gb6Voetzl-109" target="aBDvLTNAFJ3Gb6Voetzl-66">
          <mxGeometry relative="1" as="geometry" />
        </mxCell>
        <mxCell id="aBDvLTNAFJ3Gb6Voetzl-109" value="Staff" style="swimlane;fontStyle=0;childLayout=stackLayout;horizontal=1;startSize=26;fillColor=none;horizontalStack=0;resizeParent=1;resizeParentMax=0;resizeLast=0;collapsible=1;marginBottom=0;whiteSpace=wrap;html=1;fontSize=12;spacing=2;" vertex="1" parent="WIyWlLk6GJQsqaUBKTNV-1">
          <mxGeometry x="129" y="371" width="120" height="130" as="geometry" />
        </mxCell>
        <mxCell id="aBDvLTNAFJ3Gb6Voetzl-110" value="alterQueOrders" style="text;strokeColor=none;fillColor=none;align=left;verticalAlign=top;spacingLeft=4;spacingRight=4;overflow=hidden;rotatable=0;points=[[0,0.5],[1,0.5]];portConstraint=eastwest;whiteSpace=wrap;html=1;fontSize=12;spacing=2;" vertex="1" parent="aBDvLTNAFJ3Gb6Voetzl-109">
          <mxGeometry y="26" width="120" height="26" as="geometry" />
        </mxCell>
        <mxCell id="aBDvLTNAFJ3Gb6Voetzl-111" value="orderPaid" style="text;strokeColor=none;fillColor=none;align=left;verticalAlign=top;spacingLeft=4;spacingRight=4;overflow=hidden;rotatable=0;points=[[0,0.5],[1,0.5]];portConstraint=eastwest;whiteSpace=wrap;html=1;fontSize=12;spacing=2;" vertex="1" parent="aBDvLTNAFJ3Gb6Voetzl-109">
          <mxGeometry y="52" width="120" height="26" as="geometry" />
        </mxCell>
        <mxCell id="aBDvLTNAFJ3Gb6Voetzl-112" value="orderReady" style="text;strokeColor=none;fillColor=none;align=left;verticalAlign=top;spacingLeft=4;spacingRight=4;overflow=hidden;rotatable=0;points=[[0,0.5],[1,0.5]];portConstraint=eastwest;whiteSpace=wrap;html=1;fontSize=12;spacing=2;" vertex="1" parent="aBDvLTNAFJ3Gb6Voetzl-109">
          <mxGeometry y="78" width="120" height="26" as="geometry" />
        </mxCell>
        <mxCell id="aBDvLTNAFJ3Gb6Voetzl-113" value="viewPizzaLog" style="text;strokeColor=none;fillColor=none;align=left;verticalAlign=top;spacingLeft=4;spacingRight=4;overflow=hidden;rotatable=0;points=[[0,0.5],[1,0.5]];portConstraint=eastwest;whiteSpace=wrap;html=1;fontSize=12;spacing=2;" vertex="1" parent="aBDvLTNAFJ3Gb6Voetzl-109">
          <mxGeometry y="104" width="120" height="26" as="geometry" />
        </mxCell>
        <mxCell id="aBDvLTNAFJ3Gb6Voetzl-114" style="edgeStyle=orthogonalEdgeStyle;rounded=0;orthogonalLoop=1;jettySize=auto;html=1;endArrow=open;endFill=0;entryX=0;entryY=0.5;entryDx=0;entryDy=0;startArrow=open;startFill=0;verticalAlign=top;" edge="1" parent="WIyWlLk6GJQsqaUBKTNV-1" source="aBDvLTNAFJ3Gb6Voetzl-110" target="aBDvLTNAFJ3Gb6Voetzl-90">
          <mxGeometry relative="1" as="geometry" />
        </mxCell>
        <mxCell id="aBDvLTNAFJ3Gb6Voetzl-115" value="&lt;span style=&quot;font-size: 12px;&quot;&gt;*&lt;/span&gt;" style="edgeLabel;html=1;align=center;verticalAlign=middle;resizable=0;points=[];fontStyle=1;fontSize=12;" connectable="0" vertex="1" parent="aBDvLTNAFJ3Gb6Voetzl-114">
          <mxGeometry x="-0.2178" y="-2" relative="1" as="geometry">
            <mxPoint x="132" y="-15" as="offset" />
          </mxGeometry>
        </mxCell>
        <mxCell id="aBDvLTNAFJ3Gb6Voetzl-116" value="&lt;font style=&quot;font-size: 12px;&quot;&gt;&lt;b&gt;*&lt;/b&gt;&lt;/font&gt;" style="edgeLabel;html=1;align=center;verticalAlign=middle;resizable=0;points=[];labelBackgroundColor=none;" connectable="0" vertex="1" parent="aBDvLTNAFJ3Gb6Voetzl-114">
          <mxGeometry x="-0.8492" y="-1" relative="1" as="geometry">
            <mxPoint x="-7" y="-15" as="offset" />
          </mxGeometry>
        </mxCell>
        <mxCell id="aBDvLTNAFJ3Gb6Voetzl-117" value="Manager" style="swimlane;fontStyle=0;childLayout=stackLayout;horizontal=1;startSize=26;fillColor=none;horizontalStack=0;resizeParent=1;resizeParentMax=0;resizeLast=0;collapsible=1;marginBottom=0;whiteSpace=wrap;html=1;fontSize=12;spacing=2;" vertex="1" parent="WIyWlLk6GJQsqaUBKTNV-1">
          <mxGeometry x="129" y="241" width="120" height="52" as="geometry" />
        </mxCell>
        <mxCell id="aBDvLTNAFJ3Gb6Voetzl-118" value="viewAccoutLog&lt;br&gt;" style="text;strokeColor=none;fillColor=none;align=left;verticalAlign=top;spacingLeft=4;spacingRight=4;overflow=hidden;rotatable=0;points=[[0,0.5],[1,0.5]];portConstraint=eastwest;whiteSpace=wrap;html=1;fontSize=12;spacing=2;" vertex="1" parent="aBDvLTNAFJ3Gb6Voetzl-117">
          <mxGeometry y="26" width="120" height="26" as="geometry" />
        </mxCell>
        <mxCell id="aBDvLTNAFJ3Gb6Voetzl-119" value="" style="edgeStyle=orthogonalEdgeStyle;rounded=0;orthogonalLoop=1;jettySize=auto;html=1;endArrow=blockThin;endFill=1;" edge="1" parent="WIyWlLk6GJQsqaUBKTNV-1" source="aBDvLTNAFJ3Gb6Voetzl-117" target="aBDvLTNAFJ3Gb6Voetzl-109">
          <mxGeometry relative="1" as="geometry">
            <mxPoint x="160" y="276" as="sourcePoint" />
            <mxPoint x="159.75" y="352" as="targetPoint" />
          </mxGeometry>
        </mxCell>
        <mxCell id="aBDvLTNAFJ3Gb6Voetzl-120" value="" style="edgeStyle=orthogonalEdgeStyle;rounded=0;orthogonalLoop=1;jettySize=auto;html=1;endArrow=open;endFill=0;" edge="1" parent="WIyWlLk6GJQsqaUBKTNV-1" source="aBDvLTNAFJ3Gb6Voetzl-72" target="aBDvLTNAFJ3Gb6Voetzl-81">
          <mxGeometry relative="1" as="geometry">
            <mxPoint x="300" y="88" as="sourcePoint" />
          </mxGeometry>
        </mxCell>
        <mxCell id="aBDvLTNAFJ3Gb6Voetzl-121" value="1" style="edgeLabel;html=1;align=center;verticalAlign=middle;resizable=0;points=[];" connectable="0" vertex="1" parent="aBDvLTNAFJ3Gb6Voetzl-120">
          <mxGeometry x="0.8859" y="-1" relative="1" as="geometry">
            <mxPoint x="-6" y="-11" as="offset" />
          </mxGeometry>
        </mxCell>
        <mxCell id="aBDvLTNAFJ3Gb6Voetzl-122" value="1" style="edgeLabel;html=1;align=center;verticalAlign=middle;resizable=0;points=[];" connectable="0" vertex="1" parent="aBDvLTNAFJ3Gb6Voetzl-120">
          <mxGeometry x="-0.922" y="1" relative="1" as="geometry">
            <mxPoint y="-15" as="offset" />
          </mxGeometry>
        </mxCell>
        <mxCell id="aBDvLTNAFJ3Gb6Voetzl-123" style="edgeStyle=orthogonalEdgeStyle;rounded=0;orthogonalLoop=1;jettySize=auto;html=1;endArrow=open;endFill=0;" edge="1" parent="WIyWlLk6GJQsqaUBKTNV-1" source="aBDvLTNAFJ3Gb6Voetzl-126" target="aBDvLTNAFJ3Gb6Voetzl-72">
          <mxGeometry relative="1" as="geometry">
            <mxPoint x="915" y="150" as="sourcePoint" />
            <mxPoint x="605" y="150" as="targetPoint" />
          </mxGeometry>
        </mxCell>
        <mxCell id="aBDvLTNAFJ3Gb6Voetzl-124" value="1" style="edgeLabel;html=1;align=center;verticalAlign=middle;resizable=0;points=[];" connectable="0" vertex="1" parent="aBDvLTNAFJ3Gb6Voetzl-123">
          <mxGeometry x="0.8636" y="-2" relative="1" as="geometry">
            <mxPoint x="-11" y="-11" as="offset" />
          </mxGeometry>
        </mxCell>
        <mxCell id="aBDvLTNAFJ3Gb6Voetzl-125" value="1" style="edgeLabel;html=1;align=center;verticalAlign=middle;resizable=0;points=[];" connectable="0" vertex="1" parent="aBDvLTNAFJ3Gb6Voetzl-123">
          <mxGeometry x="-0.9027" y="2" relative="1" as="geometry">
            <mxPoint x="5" y="-16" as="offset" />
          </mxGeometry>
        </mxCell>
        <mxCell id="aBDvLTNAFJ3Gb6Voetzl-126" value="Pizza log" style="swimlane;fontStyle=0;childLayout=stackLayout;horizontal=1;startSize=26;fillColor=none;horizontalStack=0;resizeParent=1;resizeParentMax=0;resizeLast=0;collapsible=1;marginBottom=0;whiteSpace=wrap;html=1;fontSize=12;spacing=2;" vertex="1" parent="WIyWlLk6GJQsqaUBKTNV-1">
          <mxGeometry x="920" y="69" width="120" height="182" as="geometry" />
        </mxCell>
        <mxCell id="aBDvLTNAFJ3Gb6Voetzl-127" value="uniqueID" style="text;strokeColor=none;fillColor=none;align=left;verticalAlign=top;spacingLeft=4;spacingRight=4;overflow=hidden;rotatable=0;points=[[0,0.5],[1,0.5]];portConstraint=eastwest;whiteSpace=wrap;html=1;fontSize=12;spacing=2;" vertex="1" parent="aBDvLTNAFJ3Gb6Voetzl-126">
          <mxGeometry y="26" width="120" height="26" as="geometry" />
        </mxCell>
        <mxCell id="aBDvLTNAFJ3Gb6Voetzl-128" value="customerInfo" style="text;strokeColor=none;fillColor=none;align=left;verticalAlign=top;spacingLeft=4;spacingRight=4;overflow=hidden;rotatable=0;points=[[0,0.5],[1,0.5]];portConstraint=eastwest;whiteSpace=wrap;html=1;fontSize=12;spacing=2;" vertex="1" parent="aBDvLTNAFJ3Gb6Voetzl-126">
          <mxGeometry y="52" width="120" height="26" as="geometry" />
        </mxCell>
        <mxCell id="aBDvLTNAFJ3Gb6Voetzl-129" value="orderInfo" style="text;strokeColor=none;fillColor=none;align=left;verticalAlign=top;spacingLeft=4;spacingRight=4;overflow=hidden;rotatable=0;points=[[0,0.5],[1,0.5]];portConstraint=eastwest;whiteSpace=wrap;html=1;fontSize=12;spacing=2;" vertex="1" parent="aBDvLTNAFJ3Gb6Voetzl-126">
          <mxGeometry y="78" width="120" height="26" as="geometry" />
        </mxCell>
        <mxCell id="aBDvLTNAFJ3Gb6Voetzl-130" value="orderDelivery" style="text;strokeColor=none;fillColor=none;align=left;verticalAlign=top;spacingLeft=4;spacingRight=4;overflow=hidden;rotatable=0;points=[[0,0.5],[1,0.5]];portConstraint=eastwest;whiteSpace=wrap;html=1;fontSize=12;spacing=2;" vertex="1" parent="aBDvLTNAFJ3Gb6Voetzl-126">
          <mxGeometry y="104" width="120" height="26" as="geometry" />
        </mxCell>
        <mxCell id="aBDvLTNAFJ3Gb6Voetzl-131" value="totalPrice" style="text;strokeColor=none;fillColor=none;align=left;verticalAlign=top;spacingLeft=4;spacingRight=4;overflow=hidden;rotatable=0;points=[[0,0.5],[1,0.5]];portConstraint=eastwest;whiteSpace=wrap;html=1;fontSize=12;spacing=2;" vertex="1" parent="aBDvLTNAFJ3Gb6Voetzl-126">
          <mxGeometry y="130" width="120" height="26" as="geometry" />
        </mxCell>
        <mxCell id="aBDvLTNAFJ3Gb6Voetzl-132" value="orderStatus" style="text;strokeColor=none;fillColor=none;align=left;verticalAlign=top;spacingLeft=4;spacingRight=4;overflow=hidden;rotatable=0;points=[[0,0.5],[1,0.5]];portConstraint=eastwest;whiteSpace=wrap;html=1;fontSize=12;spacing=2;" vertex="1" parent="aBDvLTNAFJ3Gb6Voetzl-126">
          <mxGeometry y="156" width="120" height="26" as="geometry" />
        </mxCell>
        <mxCell id="aBDvLTNAFJ3Gb6Voetzl-133" value="&lt;span style=&quot;font-size: 12px;&quot;&gt;*&lt;/span&gt;" style="edgeLabel;html=1;align=center;verticalAlign=middle;resizable=0;points=[];fontStyle=1;fontSize=12;labelBackgroundColor=none;" connectable="0" vertex="1" parent="WIyWlLk6GJQsqaUBKTNV-1">
          <mxGeometry x="484.9957142857142" y="410" as="geometry">
            <mxPoint x="421" y="-12" as="offset" />
          </mxGeometry>
        </mxCell>
        <mxCell id="aBDvLTNAFJ3Gb6Voetzl-134" value="1" style="edgeLabel;html=1;align=center;verticalAlign=middle;resizable=0;points=[];fontStyle=1" connectable="0" vertex="1" parent="WIyWlLk6GJQsqaUBKTNV-1">
          <mxGeometry x="624.8571428571429" y="410" as="geometry">
            <mxPoint x="-448" y="-251" as="offset" />
          </mxGeometry>
        </mxCell>
        <mxCell id="aBDvLTNAFJ3Gb6Voetzl-135" value="1" style="edgeLabel;html=1;align=center;verticalAlign=middle;resizable=0;points=[];fontStyle=1" connectable="0" vertex="1" parent="WIyWlLk6GJQsqaUBKTNV-1">
          <mxGeometry x="624.8571428571429" y="407" as="geometry">
            <mxPoint x="-448" y="-180" as="offset" />
          </mxGeometry>
        </mxCell>
        <mxCell id="aBDvLTNAFJ3Gb6Voetzl-136" value="1" style="edgeLabel;html=1;align=center;verticalAlign=middle;resizable=0;points=[];" connectable="0" vertex="1" parent="WIyWlLk6GJQsqaUBKTNV-1">
          <mxGeometry x="635.2173913043478" y="636" as="geometry">
            <mxPoint x="333" y="-122" as="offset" />
          </mxGeometry>
        </mxCell>
        <mxCell id="aBDvLTNAFJ3Gb6Voetzl-137" value="1" style="edgeLabel;html=1;align=center;verticalAlign=middle;resizable=0;points=[];" connectable="0" vertex="1" parent="WIyWlLk6GJQsqaUBKTNV-1">
          <mxGeometry x="635" y="636" as="geometry">
            <mxPoint x="-94" y="41" as="offset" />
          </mxGeometry>
        </mxCell>
        <mxCell id="aBDvLTNAFJ3Gb6Voetzl-138" value="Order" style="html=1;shadow=0;dashed=0;align=center;verticalAlign=middle;shape=mxgraph.arrows2.arrow;dy=0;dx=10;notch=10;" vertex="1" parent="WIyWlLk6GJQsqaUBKTNV-1">
          <mxGeometry x="700" y="726" width="70" height="20" as="geometry" />
        </mxCell>
        <mxCell id="aBDvLTNAFJ3Gb6Voetzl-139" value="Status" style="html=1;shadow=0;dashed=0;align=center;verticalAlign=middle;shape=mxgraph.arrows2.arrow;dy=0;dx=10;notch=10;direction=west;" vertex="1" parent="WIyWlLk6GJQsqaUBKTNV-1">
          <mxGeometry x="700" y="616" width="70" height="20" as="geometry" />
        </mxCell>
        <mxCell id="aBDvLTNAFJ3Gb6Voetzl-140" value="StatusPrompt" style="html=1;shadow=0;dashed=0;align=center;verticalAlign=middle;shape=mxgraph.arrows2.arrow;dy=0;dx=10;notch=10;direction=east;" vertex="1" parent="WIyWlLk6GJQsqaUBKTNV-1">
          <mxGeometry x="320" y="387" width="100" height="20" as="geometry" />
        </mxCell>
        <mxCell id="aBDvLTNAFJ3Gb6Voetzl-141" value="Status + ID" style="html=1;shadow=0;dashed=0;align=center;verticalAlign=middle;shape=mxgraph.arrows2.arrow;dy=0;dx=10;notch=10;direction=east;" vertex="1" parent="WIyWlLk6GJQsqaUBKTNV-1">
          <mxGeometry x="720" y="387" width="100" height="20" as="geometry" />
        </mxCell>
        <mxCell id="aBDvLTNAFJ3Gb6Voetzl-142" value="OrderInfo" style="html=1;shadow=0;dashed=0;align=center;verticalAlign=middle;shape=mxgraph.arrows2.arrow;dy=0;dx=10;notch=10;direction=west;" vertex="1" parent="WIyWlLk6GJQsqaUBKTNV-1">
          <mxGeometry x="310" y="413" width="100" height="20" as="geometry" />
        </mxCell>
      </root>
    </mxGraphModel>
  </diagram>
</mxfile>
